<svg width="20" height="20" viewBox="0 0 20 20" fill="none" xmlns="http://www.w3.org/2000/svg">
<path d="M3.583 15.896C3.18034 15.896 2.83334 15.75 2.542 15.458C2.25 15.1667 2.104 14.8267 2.104 14.438C2.104 14.0347 2.25 13.6907 2.542 13.406C2.83334 13.1213 3.17334 12.979 3.562 12.979C3.96534 12.979 4.30934 13.1213 4.594 13.406C4.87867 13.6907 5.021 14.0277 5.021 14.417C5.021 14.8197 4.882 15.1667 4.604 15.458C4.32667 15.75 3.98634 15.896 3.583 15.896ZM3.583 11.458C3.18034 11.458 2.83334 11.3157 2.542 11.031C2.25 10.7463 2.104 10.4027 2.104 10C2.104 9.59734 2.25 9.25367 2.542 8.969C2.83334 8.68434 3.17334 8.542 3.562 8.542C3.96534 8.542 4.30934 8.68434 4.594 8.969C4.87867 9.25367 5.021 9.59734 5.021 10C5.021 10.4027 4.882 10.7463 4.604 11.031C4.32667 11.3157 3.98634 11.458 3.583 11.458ZM3.583 7.021C3.18034 7.021 2.83334 6.87867 2.542 6.594C2.25 6.30934 2.104 5.97234 2.104 5.583C2.104 5.18034 2.25 4.83334 2.542 4.542C2.83334 4.25 3.17334 4.104 3.562 4.104C3.96534 4.104 4.30934 4.25 4.594 4.542C4.87867 4.83334 5.021 5.17334 5.021 5.562C5.021 5.96534 4.882 6.30934 4.604 6.594C4.32667 6.87867 3.98634 7.021 3.583 7.021V7.021ZM6.292 15.75V13.083H17.896V15.75H6.292ZM6.292 11.333V8.667H17.896V11.333H6.292ZM6.292 6.917V4.25H17.896V6.917H6.292Z" fill="#2B3656"/>
</svg>
