<svg width="16" height="16" viewBox="0 0 16 16" fill="none" xmlns="http://www.w3.org/2000/svg">
<path d="M5.06199 11.708L7.99999 8.77099L10.938 11.708L11.708 10.938L8.77099 7.99999L11.708 5.06199L10.938 4.29199L7.99999 7.22899L5.06199 4.29199L4.29199 5.06199L7.22899 7.99999L4.29199 10.938L5.06199 11.708ZM7.99999 15.583C6.95866 15.583 5.97599 15.3853 5.05199 14.99C4.12866 14.594 3.32299 14.0523 2.63499 13.365C1.94766 12.677 1.40599 11.8713 1.00999 10.948C0.614659 10.024 0.416992 9.04133 0.416992 7.99999C0.416992 6.94466 0.614659 5.95866 1.00999 5.04199C1.40599 4.12533 1.94766 3.32299 2.63499 2.63499C3.32299 1.94766 4.12866 1.40599 5.05199 1.00999C5.97599 0.614659 6.95866 0.416992 7.99999 0.416992C9.05533 0.416992 10.0413 0.614659 10.958 1.00999C11.8747 1.40599 12.677 1.94766 13.365 2.63499C14.0523 3.32299 14.594 4.12533 14.99 5.04199C15.3853 5.95866 15.583 6.94466 15.583 7.99999C15.583 9.04133 15.3853 10.024 14.99 10.948C14.594 11.8713 14.0523 12.677 13.365 13.365C12.677 14.0523 11.8747 14.594 10.958 14.99C10.0413 15.3853 9.05533 15.583 7.99999 15.583ZM7.99999 14.5C9.80533 14.5 11.34 13.868 12.604 12.604C13.868 11.34 14.5 9.80533 14.5 7.99999C14.5 6.19466 13.868 4.65999 12.604 3.39599C11.34 2.13199 9.80533 1.49999 7.99999 1.49999C6.19466 1.49999 4.65999 2.13199 3.39599 3.39599C2.13199 4.65999 1.49999 6.19466 1.49999 7.99999C1.49999 9.80533 2.13199 11.34 3.39599 12.604C4.65999 13.868 6.19466 14.5 7.99999 14.5Z" fill="#2B3656"/>
</svg>
