<svg width="46" height="46" viewBox="0 0 46 46" fill="none" xmlns="http://www.w3.org/2000/svg">
<g filter="url(#filter0_dd_49_2559)">
<circle cx="23" cy="22" r="15" fill="white"/>
</g>
<path d="M17 20.792C16.5 20.792 16.0763 20.6183 15.729 20.271C15.3817 19.9237 15.208 19.5 15.208 19C15.208 18.5 15.3817 18.0763 15.729 17.729C16.0763 17.3817 16.5 17.208 17 17.208C17.5 17.208 17.9237 17.3817 18.271 17.729C18.6183 18.0763 18.792 18.5 18.792 19C18.792 19.5 18.6183 19.9237 18.271 20.271C17.9237 20.6183 17.5 20.792 17 20.792ZM20.5 17.792C20 17.792 19.5763 17.6183 19.229 17.271C18.8817 16.9237 18.708 16.5 18.708 16C18.708 15.5 18.8817 15.0763 19.229 14.729C19.5763 14.3817 20 14.208 20.5 14.208C21 14.208 21.4237 14.3817 21.771 14.729C22.1183 15.0763 22.292 15.5 22.292 16C22.292 16.5 22.1183 16.9237 21.771 17.271C21.4237 17.6183 21 17.792 20.5 17.792ZM25.5 17.792C25 17.792 24.5763 17.6183 24.229 17.271C23.8817 16.9237 23.708 16.5 23.708 16C23.708 15.5 23.8817 15.0763 24.229 14.729C24.5763 14.3817 25 14.208 25.5 14.208C26 14.208 26.4237 14.3817 26.771 14.729C27.1183 15.0763 27.292 15.5 27.292 16C27.292 16.5 27.1183 16.9237 26.771 17.271C26.4237 17.6183 26 17.792 25.5 17.792ZM29 20.792C28.5 20.792 28.0763 20.6183 27.729 20.271C27.3817 19.9237 27.208 19.5 27.208 19C27.208 18.5 27.3817 18.0763 27.729 17.729C28.0763 17.3817 28.5 17.208 29 17.208C29.5 17.208 29.9237 17.3817 30.271 17.729C30.6183 18.0763 30.792 18.5 30.792 19C30.792 19.5 30.6183 19.9237 30.271 20.271C29.9237 20.6183 29.5 20.792 29 20.792ZM18.938 28.812C18.4653 28.812 18.0623 28.6177 17.729 28.229C17.3957 27.8403 17.229 27.3613 17.229 26.792C17.229 26.1667 17.4477 25.632 17.885 25.188C18.323 24.7433 18.7503 24.2847 19.167 23.812C19.5277 23.396 19.847 22.9727 20.125 22.542C20.403 22.1113 20.7017 21.6807 21.021 21.25C21.285 20.9167 21.5767 20.6597 21.896 20.479C22.2153 20.2983 22.5833 20.208 23 20.208C23.4167 20.208 23.795 20.295 24.135 20.469C24.4757 20.6423 24.764 20.9027 25 21.25C25.3193 21.6807 25.618 22.1043 25.896 22.521C26.1733 22.9377 26.4857 23.3613 26.833 23.792C27.2363 24.278 27.6637 24.7397 28.115 25.177C28.5663 25.6143 28.792 26.1527 28.792 26.792C28.792 27.3473 28.6217 27.8193 28.281 28.208C27.941 28.5973 27.528 28.792 27.042 28.792C26.3473 28.792 25.6737 28.7087 25.021 28.542C24.3683 28.3753 23.6947 28.292 23 28.292C22.3053 28.292 21.6283 28.3787 20.969 28.552C20.309 28.7253 19.632 28.812 18.938 28.812Z" fill="#2B3656"/>
<defs>
<filter id="filter0_dd_49_2559" x="0" y="0" width="46" height="46" filterUnits="userSpaceOnUse" color-interpolation-filters="sRGB">
<feFlood flood-opacity="0" result="BackgroundImageFix"/>
<feColorMatrix in="SourceAlpha" type="matrix" values="0 0 0 0 0 0 0 0 0 0 0 0 0 0 0 0 0 0 127 0" result="hardAlpha"/>
<feOffset dy="1"/>
<feGaussianBlur stdDeviation="4"/>
<feComposite in2="hardAlpha" operator="out"/>
<feColorMatrix type="matrix" values="0 0 0 0 0 0 0 0 0 0 0 0 0 0 0 0 0 0 0.1 0"/>
<feBlend mode="normal" in2="BackgroundImageFix" result="effect1_dropShadow_49_2559"/>
<feColorMatrix in="SourceAlpha" type="matrix" values="0 0 0 0 0 0 0 0 0 0 0 0 0 0 0 0 0 0 127 0" result="hardAlpha"/>
<feOffset dy="1"/>
<feGaussianBlur stdDeviation="1"/>
<feComposite in2="hardAlpha" operator="out"/>
<feColorMatrix type="matrix" values="0 0 0 0 0 0 0 0 0 0 0 0 0 0 0 0 0 0 0.1 0"/>
<feBlend mode="normal" in2="effect1_dropShadow_49_2559" result="effect2_dropShadow_49_2559"/>
<feBlend mode="normal" in="SourceGraphic" in2="effect2_dropShadow_49_2559" result="shape"/>
</filter>
</defs>
</svg>
