<svg width="49" height="77" viewBox="0 0 49 77" fill="none" xmlns="http://www.w3.org/2000/svg">
<g filter="url(#filter0_ddddd_121_859)">
<path fill-rule="evenodd" clip-rule="evenodd" d="M29.448 2.74777C27.8775 2.26433 26.2071 2 24.4724 2C19.4111 2 14.8816 4.2294 11.862 7.73174H11.8584C9.45271 10.5211 8 14.1208 8 18.0475C8 21.0664 8.61749 23.5114 9.63118 25.7026C10.931 28.5133 12.8868 30.9018 15.0375 33.5285C15.7156 34.3566 16.4136 35.2091 17.116 36.1052H17.1196C18.0512 37.2947 18.9899 38.5607 19.9072 39.9554C21.478 42.32 22.1051 44.2395 22.5528 45.6096C23.0572 47.1535 23.3337 48 24.4759 48C25.6134 48 25.8897 47.154 26.3934 45.6117C26.8412 44.2405 27.4687 42.3188 29.0411 39.9519C30.6478 37.5034 32.3326 35.4458 33.9124 33.5164C37.734 28.8494 40.9412 24.9326 40.9412 18.0475C40.9412 15.3799 40.2701 12.8653 39.0887 10.6533C37.0935 6.91441 33.6348 4.03811 29.4516 2.74777H29.448Z" fill="#2B3656"/>
<ellipse cx="24.4709" cy="17.9014" rx="6.43382" ry="6.25" fill="white"/>
</g>
<defs>
<filter id="filter0_ddddd_121_859" x="0" y="0" width="48.9414" height="77" filterUnits="userSpaceOnUse" color-interpolation-filters="sRGB">
<feFlood flood-opacity="0" result="BackgroundImageFix"/>
<feColorMatrix in="SourceAlpha" type="matrix" values="0 0 0 0 0 0 0 0 0 0 0 0 0 0 0 0 0 0 127 0" result="hardAlpha"/>
<feOffset/>
<feColorMatrix type="matrix" values="0 0 0 0 0.211765 0 0 0 0 0.101961 0 0 0 0 0.0705882 0 0 0 0.04 0"/>
<feBlend mode="normal" in2="BackgroundImageFix" result="effect1_dropShadow_121_859"/>
<feColorMatrix in="SourceAlpha" type="matrix" values="0 0 0 0 0 0 0 0 0 0 0 0 0 0 0 0 0 0 127 0" result="hardAlpha"/>
<feOffset dy="1"/>
<feGaussianBlur stdDeviation="1.5"/>
<feColorMatrix type="matrix" values="0 0 0 0 0.211765 0 0 0 0 0.101961 0 0 0 0 0.0705882 0 0 0 0.04 0"/>
<feBlend mode="normal" in2="effect1_dropShadow_121_859" result="effect2_dropShadow_121_859"/>
<feColorMatrix in="SourceAlpha" type="matrix" values="0 0 0 0 0 0 0 0 0 0 0 0 0 0 0 0 0 0 127 0" result="hardAlpha"/>
<feOffset dy="5"/>
<feGaussianBlur stdDeviation="2.5"/>
<feColorMatrix type="matrix" values="0 0 0 0 0.211765 0 0 0 0 0.101961 0 0 0 0 0.0705882 0 0 0 0.03 0"/>
<feBlend mode="normal" in2="effect2_dropShadow_121_859" result="effect3_dropShadow_121_859"/>
<feColorMatrix in="SourceAlpha" type="matrix" values="0 0 0 0 0 0 0 0 0 0 0 0 0 0 0 0 0 0 127 0" result="hardAlpha"/>
<feOffset dy="12"/>
<feGaussianBlur stdDeviation="3.5"/>
<feColorMatrix type="matrix" values="0 0 0 0 0.211765 0 0 0 0 0.101961 0 0 0 0 0.0705882 0 0 0 0.02 0"/>
<feBlend mode="normal" in2="effect3_dropShadow_121_859" result="effect4_dropShadow_121_859"/>
<feColorMatrix in="SourceAlpha" type="matrix" values="0 0 0 0 0 0 0 0 0 0 0 0 0 0 0 0 0 0 127 0" result="hardAlpha"/>
<feOffset dy="21"/>
<feGaussianBlur stdDeviation="4"/>
<feColorMatrix type="matrix" values="0 0 0 0 0.211765 0 0 0 0 0.101961 0 0 0 0 0.0705882 0 0 0 0.01 0"/>
<feBlend mode="normal" in2="effect4_dropShadow_121_859" result="effect5_dropShadow_121_859"/>
<feBlend mode="normal" in="SourceGraphic" in2="effect5_dropShadow_121_859" result="shape"/>
</filter>
</defs>
</svg>
