<svg width="14" height="14" viewBox="0 0 14 14" fill="none" xmlns="http://www.w3.org/2000/svg">
<path d="M12.896 13.646L7.91701 8.68801C7.50034 9.00734 7.04534 9.25368 6.55201 9.42701C6.05867 9.60101 5.54834 9.68801 5.02101 9.68801C3.71501 9.68801 2.60734 9.23301 1.69801 8.32301C0.788008 7.41301 0.333008 6.30534 0.333008 5.00001C0.333008 3.70801 0.788008 2.60401 1.69801 1.68801C2.60734 0.770679 3.71501 0.312012 5.02101 0.312012C6.31234 0.312012 7.41301 0.767012 8.32301 1.67701C9.23301 2.58701 9.68801 3.69468 9.68801 5.00001C9.68801 5.54134 9.60101 6.06201 9.42701 6.56201C9.25367 7.06201 9.01401 7.51368 8.70801 7.91701L13.667 12.875L12.896 13.646ZM5.02101 8.60401C6.02101 8.60401 6.86801 8.25335 7.56201 7.55201C8.25667 6.85068 8.60401 6.00001 8.60401 5.00001C8.60401 4.00001 8.25667 3.14934 7.56201 2.44801C6.86801 1.74668 6.02101 1.39601 5.02101 1.39601C4.00701 1.39601 3.15267 1.74668 2.45801 2.44801C1.76401 3.14934 1.41701 4.00001 1.41701 5.00001C1.41701 6.00001 1.76401 6.85068 2.45801 7.55201C3.15267 8.25335 4.00701 8.60401 5.02101 8.60401Z" fill="#2B3656"/>
</svg>
