<svg width="20" height="20" viewBox="0 0 20 20" fill="none" xmlns="http://www.w3.org/2000/svg">
<path d="M4.958 15.583C4.59733 15.583 4.285 15.4513 4.021 15.188C3.757 14.924 3.625 14.6113 3.625 14.25V5.74999C3.625 5.37533 3.757 5.05933 4.021 4.80199C4.285 4.54533 4.59733 4.41699 4.958 4.41699H13.438C13.8127 4.41699 14.132 4.54533 14.396 4.80199C14.66 5.05933 14.792 5.37533 14.792 5.74999V9.31199L17.375 6.72899V13.271L14.792 10.688V14.25C14.792 14.6113 14.66 14.924 14.396 15.188C14.132 15.4513 13.8127 15.583 13.438 15.583H4.958ZM4.958 14.5H13.438C13.5207 14.5 13.5863 14.4757 13.635 14.427C13.6837 14.3783 13.708 14.3193 13.708 14.25V5.74999C13.708 5.68066 13.6837 5.62166 13.635 5.57299C13.5863 5.52433 13.5207 5.49999 13.438 5.49999H4.958C4.88867 5.49999 4.82967 5.52433 4.781 5.57299C4.73233 5.62166 4.708 5.68066 4.708 5.74999V14.25C4.708 14.3193 4.73233 14.3783 4.781 14.427C4.82967 14.4757 4.88867 14.5 4.958 14.5ZM4.708 14.5V5.49999V14.5Z" fill="#2B3656"/>
</svg>
