<svg width="22" height="15" viewBox="0 0 22 15" fill="none" xmlns="http://www.w3.org/2000/svg">
<path d="M3.42041 14.0044H11.8706C13.8462 14.0044 14.9336 12.9253 14.9336 11.0327V2.97266C14.9336 1.08838 13.8877 0.00927734 11.9204 0.00927734H3.42041C1.49463 0.00927734 0.357422 1.08838 0.357422 2.98096V11.1655C0.357422 13.0581 1.45312 14.0044 3.42041 14.0044ZM16.2866 10.0117L18.8516 12.2114C19.2832 12.5684 19.6899 12.8091 20.1133 12.8091C20.8354 12.8091 21.3501 12.311 21.3501 11.5142V2.59912C21.3501 1.81055 20.8354 1.3042 20.1133 1.3042C19.6899 1.3042 19.2832 1.54492 18.8516 1.91016L16.2866 4.10986V10.0117Z" fill="white"/>
</svg>
