<svg width="21" height="14" viewBox="0 0 21 14" fill="none" xmlns="http://www.w3.org/2000/svg">
<path d="M3.06406 13.9951H11.5172C13.4935 13.9951 14.5813 12.916 14.5813 11.0234V2.96338C14.5813 1.0791 13.535 0 11.567 0H3.06406C1.1376 0 0 1.0791 0 2.97168V11.1562C0 13.0488 1.09609 13.9951 3.06406 13.9951ZM15.9348 10.0024L18.5006 12.2021C18.9324 12.5591 19.3393 12.7998 19.7628 12.7998C20.4852 12.7998 21 12.3018 21 11.5049V2.58984C21 1.80127 20.4852 1.29492 19.7628 1.29492C19.3393 1.29492 18.9324 1.53564 18.5006 1.90088L15.9348 4.10059V10.0024Z" fill="white"/>
</svg>
