<svg width="18" height="18" viewBox="0 0 18 18" fill="none" xmlns="http://www.w3.org/2000/svg">
<path d="M2.62633 15H9.87189C11.5658 15 12.4982 14.0747 12.4982 12.452V5.54093C12.4982 3.92527 11.6014 3 9.91459 3H2.62633C0.975089 3 0 3.92527 0 5.54804V12.5658C0 14.1886 0.939502 15 2.62633 15ZM13.6584 11.5765L15.8577 13.4626C16.2278 13.7687 16.5765 13.9751 16.9395 13.9751C17.5587 13.9751 18 13.548 18 12.8648V5.22064C18 4.54448 17.5587 4.11032 16.9395 4.11032C16.5765 4.11032 16.2278 4.31673 15.8577 4.62989L13.6584 6.51601V11.5765Z" fill="white"/>
</svg>
