<svg width="18" height="18" viewBox="0 0 18 18" fill="none" xmlns="http://www.w3.org/2000/svg">
<path d="M1.05469 16.876C1.26221 16.876 1.47803 16.8013 1.74365 16.6519L5.96875 14.3774L10.5591 16.9507C10.8579 17.1167 11.1816 17.1997 11.4888 17.1997C11.7793 17.1997 12.0698 17.125 12.3188 16.9839L16.6602 14.5186C17.1582 14.2446 17.3823 13.8462 17.3823 13.29V2.10889C17.3823 1.49463 17.042 1.1543 16.4443 1.1543C16.2368 1.1543 16.021 1.2207 15.7471 1.37012L11.3477 3.81885L6.84033 1.05469C6.58301 0.905273 6.29248 0.822266 6.00195 0.822266C5.70312 0.822266 5.4043 0.905273 5.14697 1.05469L0.830566 3.51172C0.34082 3.79395 0.116699 4.19238 0.116699 4.74854V15.9131C0.116699 16.5273 0.457031 16.876 1.05469 16.876ZM5.4292 13.0576L1.68555 15.1162C1.64404 15.1328 1.60254 15.1577 1.56104 15.1577C1.49463 15.1577 1.45312 15.1079 1.45312 15.0249V5.07227C1.45312 4.87305 1.52783 4.73193 1.72705 4.61572L5.13037 2.62354C5.23828 2.56543 5.32959 2.51562 5.4292 2.45752V13.0576ZM6.76562 13.1904V2.63184C6.84863 2.68164 6.94824 2.73145 7.03125 2.78125L10.7334 5.03906V15.415C10.6172 15.3486 10.4927 15.2905 10.3682 15.2241L6.76562 13.1904ZM12.0698 15.5645V4.95605L15.8135 2.91406C15.855 2.88916 15.8965 2.87256 15.9297 2.87256C16.0044 2.87256 16.0459 2.92236 16.0459 3.00537V12.958C16.0459 13.1655 15.9629 13.3066 15.772 13.4229L12.4434 15.3569C12.3188 15.4316 12.1943 15.5063 12.0698 15.5645Z" fill="#FF8766"/>
</svg>
