<svg width="18" height="18" viewBox="0 0 18 18" fill="none" xmlns="http://www.w3.org/2000/svg">
<g clip-path="url(#clip0_713_55)">
<path d="M0.977885 17.164C1.19423 17.164 1.41923 17.0864 1.69615 16.9313L6.10096 14.5705L10.8865 17.2415C11.1981 17.4138 11.5356 17.5 11.8558 17.5C12.1587 17.5 12.4615 17.4225 12.7212 17.276L17.2471 14.7169C17.7663 14.4326 18 14.019 18 13.4417V1.83553C18 1.19792 17.6452 0.844653 17.0221 0.844653C16.8058 0.844653 16.5808 0.913583 16.2952 1.06868L11.7087 3.61049L7.00962 0.741257C6.74135 0.586163 6.43846 0.5 6.13558 0.5C5.82404 0.5 5.5125 0.586163 5.24423 0.741257L0.744231 3.29169C0.233654 3.58464 0 3.99823 0 4.57552V16.1645C0 16.8021 0.354808 17.164 0.977885 17.164ZM5.53846 13.2005L1.63558 15.3373C1.59231 15.3545 1.54904 15.3804 1.50577 15.3804C1.43654 15.3804 1.39327 15.3287 1.39327 15.2425V4.91156C1.39327 4.70476 1.47115 4.55829 1.67885 4.43766L5.22692 2.36974C5.33942 2.30943 5.43462 2.25773 5.53846 2.19742V13.2005ZM6.93173 13.3383V2.37836C7.01827 2.43006 7.12212 2.48175 7.20865 2.53345L11.0683 4.87709V15.6475C10.9471 15.5786 10.8173 15.5182 10.6875 15.4493L6.93173 13.3383ZM12.4615 15.8026V4.79093L16.3644 2.67131C16.4077 2.64546 16.451 2.62823 16.4856 2.62823C16.5635 2.62823 16.6067 2.67993 16.6067 2.76609V13.0971C16.6067 13.3125 16.5202 13.4589 16.3212 13.5796L12.851 15.5872C12.7212 15.6647 12.5913 15.7423 12.4615 15.8026Z" fill="#FF8766"/>
</g>
<defs>
<clipPath id="clip0_713_55">
<rect width="18" height="18" fill="white"/>
</clipPath>
</defs>
</svg>
