<svg fill="none" height="41" viewBox="0 0 29 41" width="29" xmlns="http://www.w3.org/2000/svg"><path clip-rule="evenodd" d="m18.8819.658304c-1.3826-.425601-2.8532-.658304-4.3803-.658304-4.4558 0-8.44331 1.96267-11.10167 5.04598h-.00314c-2.11789 2.45563-3.39679 5.62472-3.39679 9.08152 0 2.6577.543612 4.8102 1.43602 6.7392 1.14427 2.4744 2.86608 4.5772 4.7595 6.8896l.0005.0006c.59696.7291 1.21098 1.479 1.82933 2.2679h.00315c.82013 1.0472 1.64655 2.1617 2.4541 3.3895 1.3829 2.0817 1.9349 3.7715 2.329 4.9777.4441 1.3592.6875 2.1044 1.6931 2.1044 1.0014 0 1.2446-.7447 1.688-2.1025.3943-1.2072.9467-2.8989 2.331-4.9827 1.4144-2.1556 2.8977-3.967 4.2885-5.6655 3.3643-4.1087 6.1878-7.5568 6.1878-13.6182 0-2.3484-.5908-4.56219-1.6308-6.50954-1.7566-3.29152-4.8014-5.8237-8.4842-6.959656z" fill="#f50001" fill-rule="evenodd"/><ellipse cx="14.5" cy="13.9989" fill="#b30001" rx="5.66406" ry="5.50223"/></svg>