<svg width="45" height="72" viewBox="0 0 45 72" fill="none" xmlns="http://www.w3.org/2000/svg">
<g filter="url(#filter0_ddddd_49_519)">
<path fill-rule="evenodd" clip-rule="evenodd" d="M26.8819 2.6583C25.4993 2.2327 24.0287 2 22.5016 2C18.0458 2 14.0583 3.96267 11.3999 7.04598H11.3968C9.2789 9.50161 8 12.6707 8 16.1275C8 18.7852 8.54361 20.9377 9.43602 22.8667C10.5803 25.3411 12.3021 27.4439 14.1955 29.7563L14.196 29.7569C14.793 30.486 15.407 31.2359 16.0254 32.0248H16.0285C16.8486 33.072 17.675 34.1865 18.4826 35.4143C19.8655 37.496 20.4175 39.1858 20.8116 40.392C21.2557 41.7512 21.4991 42.4964 22.5047 42.4964C23.5061 42.4964 23.7493 41.7517 24.1927 40.3939C24.587 39.1867 25.1394 37.495 26.5237 35.4112C27.9381 33.2556 29.4214 31.4442 30.8122 29.7457C34.1765 25.637 37 22.1889 37 16.1275C37 13.7791 36.4093 11.5653 35.3692 9.61796C33.6126 6.32644 30.5678 3.79426 26.885 2.6583H26.8819Z" fill="#F50001"/>
<ellipse cx="22.5" cy="15.9989" rx="5.66406" ry="5.50223" fill="white"/>
</g>
<defs>
<filter id="filter0_ddddd_49_519" x="0" y="0" width="45" height="71.4965" filterUnits="userSpaceOnUse" color-interpolation-filters="sRGB">
<feFlood flood-opacity="0" result="BackgroundImageFix"/>
<feColorMatrix in="SourceAlpha" type="matrix" values="0 0 0 0 0 0 0 0 0 0 0 0 0 0 0 0 0 0 127 0" result="hardAlpha"/>
<feOffset/>
<feColorMatrix type="matrix" values="0 0 0 0 0.211765 0 0 0 0 0.101961 0 0 0 0 0.0705882 0 0 0 0.04 0"/>
<feBlend mode="normal" in2="BackgroundImageFix" result="effect1_dropShadow_49_519"/>
<feColorMatrix in="SourceAlpha" type="matrix" values="0 0 0 0 0 0 0 0 0 0 0 0 0 0 0 0 0 0 127 0" result="hardAlpha"/>
<feOffset dy="1"/>
<feGaussianBlur stdDeviation="1.5"/>
<feColorMatrix type="matrix" values="0 0 0 0 0.211765 0 0 0 0 0.101961 0 0 0 0 0.0705882 0 0 0 0.04 0"/>
<feBlend mode="normal" in2="effect1_dropShadow_49_519" result="effect2_dropShadow_49_519"/>
<feColorMatrix in="SourceAlpha" type="matrix" values="0 0 0 0 0 0 0 0 0 0 0 0 0 0 0 0 0 0 127 0" result="hardAlpha"/>
<feOffset dy="5"/>
<feGaussianBlur stdDeviation="2.5"/>
<feColorMatrix type="matrix" values="0 0 0 0 0.211765 0 0 0 0 0.101961 0 0 0 0 0.0705882 0 0 0 0.03 0"/>
<feBlend mode="normal" in2="effect2_dropShadow_49_519" result="effect3_dropShadow_49_519"/>
<feColorMatrix in="SourceAlpha" type="matrix" values="0 0 0 0 0 0 0 0 0 0 0 0 0 0 0 0 0 0 127 0" result="hardAlpha"/>
<feOffset dy="12"/>
<feGaussianBlur stdDeviation="3.5"/>
<feColorMatrix type="matrix" values="0 0 0 0 0.211765 0 0 0 0 0.101961 0 0 0 0 0.0705882 0 0 0 0.02 0"/>
<feBlend mode="normal" in2="effect3_dropShadow_49_519" result="effect4_dropShadow_49_519"/>
<feColorMatrix in="SourceAlpha" type="matrix" values="0 0 0 0 0 0 0 0 0 0 0 0 0 0 0 0 0 0 127 0" result="hardAlpha"/>
<feOffset dy="21"/>
<feGaussianBlur stdDeviation="4"/>
<feColorMatrix type="matrix" values="0 0 0 0 0.211765 0 0 0 0 0.101961 0 0 0 0 0.0705882 0 0 0 0.01 0"/>
<feBlend mode="normal" in2="effect4_dropShadow_49_519" result="effect5_dropShadow_49_519"/>
<feBlend mode="normal" in="SourceGraphic" in2="effect5_dropShadow_49_519" result="shape"/>
</filter>
</defs>
</svg>
