<svg width="645" height="644" viewBox="0 0 645 644" fill="none" xmlns="http://www.w3.org/2000/svg">
<path d="M458.171 643.739C377.083 643.739 285.531 589.957 170.051 474.472C95.1912 399.623 46.5872 334.992 21.4512 276.872C-14.3661 194.075 -5.29808 123.779 48.4153 67.912C68.3886 46.9907 101.109 16.8547 102.483 15.584C112.212 5.834 126.677 0 141.743 0C156.811 0 171.279 5.83334 181.457 16.016L268.921 103.521C279.509 114.094 285.337 128.199 285.337 143.215C285.337 158.245 279.503 172.351 268.921 182.939L230.035 221.819C225.093 226.756 222.374 233.355 222.374 240.397C222.379 247.439 225.098 254.048 230.051 258.996L385.544 414.489C390.143 419.083 396.924 421.724 404.143 421.724C411.356 421.724 418.127 419.088 422.736 414.489L461.622 375.609C471.799 365.432 486.267 359.583 501.315 359.583C516.362 359.583 530.836 365.421 541.028 375.599L628.487 463.093C650.377 484.968 650.378 520.588 628.492 542.495C627.716 543.338 601.013 571.907 576.544 594.375C542.565 627.041 502.648 643.729 458.169 643.729L458.171 643.739Z" fill="white"/>
</svg>
