<svg width="22" height="17" viewBox="0 0 22 17" fill="none" xmlns="http://www.w3.org/2000/svg">
<path d="M2 16.75C1.51667 16.75 1.104 16.5793 0.762 16.238C0.420667 15.896 0.25 15.4833 0.25 15C0.25 14.5167 0.420667 14.104 0.762 13.762C1.104 13.4207 1.51667 13.25 2 13.25C2.11667 13.25 2.22067 13.254 2.312 13.262C2.404 13.2707 2.49167 13.3 2.575 13.35L7.35 8.57501C7.3 8.49167 7.27067 8.40401 7.262 8.31201C7.254 8.22067 7.25 8.11667 7.25 8.00001C7.25 7.51667 7.42067 7.10401 7.762 6.76201C8.104 6.42067 8.51667 6.25001 9 6.25001C9.48333 6.25001 9.896 6.42067 10.238 6.76201C10.5793 7.10401 10.75 7.51667 10.75 8.00001C10.75 8.06667 10.7167 8.25001 10.65 8.55001L13.45 11.35C13.5333 11.3 13.6167 11.2707 13.7 11.262C13.7833 11.254 13.8833 11.25 14 11.25C14.1167 11.25 14.2167 11.254 14.3 11.262C14.3833 11.2707 14.4667 11.3 14.55 11.35L18.35 7.55001C18.3 7.46667 18.271 7.38334 18.263 7.30001C18.2543 7.21667 18.25 7.11667 18.25 7.00001C18.25 6.51667 18.421 6.10401 18.763 5.76201C19.1043 5.42067 19.5167 5.25001 20 5.25001C20.4833 5.25001 20.896 5.42067 21.238 5.76201C21.5793 6.10401 21.75 6.51667 21.75 7.00001C21.75 7.48334 21.5793 7.89601 21.238 8.23801C20.896 8.57934 20.4833 8.75001 20 8.75001C19.8833 8.75001 19.7833 8.74601 19.7 8.73801C19.6167 8.72934 19.5333 8.70001 19.45 8.65001L15.65 12.45C15.7 12.5333 15.7293 12.6167 15.738 12.7C15.746 12.7833 15.75 12.8833 15.75 13C15.75 13.4833 15.5793 13.896 15.238 14.238C14.896 14.5793 14.4833 14.75 14 14.75C13.5167 14.75 13.104 14.5793 12.762 14.238C12.4207 13.896 12.25 13.4833 12.25 13C12.25 12.8833 12.254 12.7793 12.262 12.688C12.2707 12.596 12.3 12.5083 12.35 12.425L9.575 9.65001C9.49167 9.70001 9.404 9.72934 9.312 9.73801C9.22067 9.74601 9.11667 9.75001 9 9.75001C8.93333 9.75001 8.75 9.71667 8.45 9.65001L3.65 14.45C3.7 14.5333 3.72933 14.6167 3.738 14.7C3.746 14.7833 3.75 14.8833 3.75 15C3.75 15.4833 3.579 15.896 3.237 16.238C2.89567 16.5793 2.48333 16.75 2 16.75ZM3 6.57501L2.5 5.50001L1.425 5.00001L2.5 4.50001L3 3.42501L3.5 4.50001L4.575 5.00001L3.5 5.50001L3 6.57501ZM14 5.40001L13.25 3.75001L11.6 3.00001L13.25 2.25001L14 0.600006L14.75 2.25001L16.4 3.00001L14.75 3.75001L14 5.40001Z" fill="#FF8766"/>
</svg>
